<svg id="kity_svg_6" xmlns="http://www.w3.org/2000/svg" xmlns:xlink="http://www.w3.org/1999/xlink" version="1.1" width="1693" height="343" style="background: rgb(251, 251, 251); visibility: visible;" viewBox="0 0 1693 343"><defs id="kity_defs_7"><linearGradient id="kity_linearGradient_17" x1="0" y1="0" x2="0" y2="1"><stop id="kity_stop_18" offset="0" stop-color="rgb(255, 255, 255)"></stop><stop id="kity_stop_19" offset="1" stop-color="rgb(204, 204, 204)"></stop></linearGradient><marker id="kity_marker_4" orient="auto" refX="6" refY="0" viewBox="-7 -7 14 14" markerWidth="7" markerHeight="7" markerUnits="userSpaceOnUse"><path id="kity_path_5" fill="rgb(115, 161, 191)" stroke="none" d="M6,0A6,6,0,1,1,-6,0A6,6,0,1,1,6,0"></path></marker><marker id="kity_marker_2" orient="auto" refX="6" refY="0" viewBox="-7 -7 14 14" markerWidth="7" markerHeight="7" markerUnits="userSpaceOnUse"><path id="kity_path_3" fill="rgb(115, 161, 191)" stroke="none" d="M6,0A6,6,0,1,1,-6,0A6,6,0,1,1,6,0"></path></marker></defs><g id="kity_g_8"><g id="minder1" text-rendering="geometricPrecision"><g id="minder_connect_group1"><path id="kity_path_31" fill="none" stroke="rgb(115, 161, 191)" stroke-width="1" d="M705.5,64.5v30h-351.5V114.5"></path><path id="kity_path_39" fill="none" stroke="rgb(115, 161, 191)" stroke-width="1" d="M705.5,64.5v30h351.5V114.5"></path><path id="kity_path_168" fill="none" stroke="rgb(115, 161, 191)" stroke-width="1" d="M1057.5,146.5v20h-210V181.5"></path><path id="kity_path_237" fill="none" stroke="rgb(115, 161, 191)" stroke-width="1" d="M354.5,146.5v20h-270V181.5"></path><path id="kity_path_238" fill="none" stroke="rgb(115, 161, 191)" stroke-width="1" d="M354.5,146.5v20h-42V181.5"></path><path id="kity_path_239" fill="none" stroke="rgb(115, 161, 191)" stroke-width="1" d="M354.5,146.5v20h270V181.5"></path><path id="kity_path_241" fill="none" stroke="rgb(115, 161, 191)" stroke-width="1" d="M1057.5,146.5v20h198V181.5"></path><path id="kity_path_293" fill="none" stroke="rgb(115, 161, 191)" stroke-width="1" d="M84.5,211.5v15h-41.5V241.5"></path><path id="kity_path_301" fill="none" stroke="rgb(115, 161, 191)" stroke-width="1" d="M84.5,211.5v15h42.5V241.5"></path><path id="kity_path_309" fill="none" stroke="rgb(115, 161, 191)" stroke-width="1" d="M312.5,211.5v15h-95.5V241.5"></path><path id="kity_path_317" fill="none" stroke="rgb(115, 161, 191)" stroke-width="1" d="M312.5,211.5v15h0.5V241.5"></path><path id="kity_path_333" fill="none" stroke="rgb(115, 161, 191)" stroke-width="1" d="M312.5,211.5v15h96.5V241.5"></path><path id="kity_path_341" fill="none" stroke="rgb(115, 161, 191)" stroke-width="1" d="M624.5,211.5v15h-125.5V241.5"></path><path id="kity_path_349" fill="none" stroke="rgb(115, 161, 191)" stroke-width="1" d="M624.5,211.5v15h-41.5V241.5"></path><path id="kity_path_357" fill="none" stroke="rgb(115, 161, 191)" stroke-width="1" d="M624.5,211.5v15h42.5V241.5"></path><path id="kity_path_365" fill="none" stroke="rgb(115, 161, 191)" stroke-width="1" d="M624.5,211.5v15h126.5V241.5"></path><path id="kity_path_413" fill="none" stroke="rgb(115, 161, 191)" stroke-width="1" d="M1255.5,211.5v15h-270V241.5"></path><path id="kity_path_415" fill="none" stroke="rgb(115, 161, 191)" stroke-width="1" d="M985.5,271.5v15h-41.5V301.5"></path><path id="kity_path_417" fill="none" stroke="rgb(115, 161, 191)" stroke-width="1" d="M985.5,271.5v15h42.5V301.5"></path><path id="kity_path_437" fill="none" stroke="rgb(115, 161, 191)" stroke-width="1" d="M1255.5,211.5v15h-42V241.5"></path><path id="kity_path_439" fill="none" stroke="rgb(115, 161, 191)" stroke-width="1" d="M1213.5,271.5v15h-95.5V301.5"></path><path id="kity_path_441" fill="none" stroke="rgb(115, 161, 191)" stroke-width="1" d="M1213.5,271.5v15h0.5V301.5"></path><path id="kity_path_443" fill="none" stroke="rgb(115, 161, 191)" stroke-width="1" d="M1213.5,271.5v15h96.5V301.5"></path><path id="kity_path_469" fill="none" stroke="rgb(115, 161, 191)" stroke-width="1" d="M1255.5,211.5v15h270V241.5"></path><path id="kity_path_471" fill="none" stroke="rgb(115, 161, 191)" stroke-width="1" d="M1525.5,271.5v15h-125.5V301.5"></path><path id="kity_path_473" fill="none" stroke="rgb(115, 161, 191)" stroke-width="1" d="M1525.5,271.5v15h-41.5V301.5"></path><path id="kity_path_475" fill="none" stroke="rgb(115, 161, 191)" stroke-width="1" d="M1525.5,271.5v15h42.5V301.5"></path><path id="kity_path_477" fill="none" stroke="rgb(115, 161, 191)" stroke-width="1" d="M1525.5,271.5v15h126.5V301.5"></path></g><g id="minder_node1"><path id="node_outline1" fill="rgb(115, 161, 191)" stroke="rgb(57, 80, 96)" d="M655.5,20.5h100a5,5,0,0,1,5,5v34a5,5,0,0,1,-5,5h-100a5,5,0,0,1,-5,-5v-34a5,5,0,0,1,5,-5z" stroke-width="3"></path><g id="node_text1" fill="white"><text id="kity_text_22" text-rendering="inherit" font-size="16" dy=".8em" y="34.5" x="704.5">语句</text></g><g id="node_priority1"><path id="kity_path_112" fill="#840023" stroke="none" d="M675,46c0,3.866,3.134,7,7,7h6c3.866,0,7,-3.134,7,-7V40H675V46z"></path><path id="kity_path_113" fill="#FF1200" stroke="none" d="M695,43c0,3.866,-3.134,7,-7,7H682c-3.866,0,-7,-3.134,-7,-7V40c0,-3.866,3.134,-7,7,-7h6c3.866,0,7,3.134,7,7V43z" opacity="0.8"></path><text id="kity_text_114" text-rendering="geometricPrecision" x="684" y="42.5" text-anchor="middle" font-style="italic" font-size="12" fill="white" dy="4">1</text></g></g><g id="kity_g_14" display="none"><path id="kity_path_15" fill="rgba(0, 92, 153, 0.5)" stroke="none" d="M747.5,112.5h20v26h-20z"></path><path id="kity_path_16" fill="none" stroke="rgb(0, 76, 128)" d="M767.5,112.5L767.5,138.5" stroke-width="1"></path></g><g id="minder_node2" opacity="1"><g id="node_expander4" style="cursor: pointer;"><path id="kity_path_90" fill="white" stroke="gray" d="M360,107.5A6,6,0,1,1,348,107.5A6,6,0,1,1,360,107.5"></path><path id="kity_path_91" fill="none" stroke="gray" d="M349.5,107.5L358.5,107.5"></path></g><path id="node_outline5" fill="rgb(238, 243, 246)" stroke="rgb(115, 161, 191)" d="M296.5,114.5h115a3,3,0,0,1,3,3v26a3,3,0,0,1,-3,3h-115a3,3,0,0,1,-3,-3v-26a3,3,0,0,1,3,-3z" stroke-width="1"></path><g id="node_text5" fill="black"><text id="kity_text_57" text-rendering="inherit" font-size="14" dy=".8em" y="123.5" x="338.5">名词短语</text></g><g id="node_priority2"><path id="kity_path_117" fill="#01467F" stroke="none" d="M314,134c0,3.866,3.134,7,7,7h6c3.866,0,7,-3.134,7,-7V128H314V134z"></path><path id="kity_path_118" fill="#0074FF" stroke="none" d="M334,131c0,3.866,-3.134,7,-7,7H321c-3.866,0,-7,-3.134,-7,-7V128c0,-3.866,3.134,-7,7,-7h6c3.866,0,7,3.134,7,7V131z" opacity="0.8"></path><text id="kity_text_119" text-rendering="geometricPrecision" x="323" y="130.5" text-anchor="middle" font-style="italic" font-size="12" fill="white" dy="4">2</text></g></g><g id="minder_node6" opacity="1"><g id="node_expander10" style="cursor: pointer;"><path id="kity_path_108" fill="white" stroke="gray" d="M1063,107.5A6,6,0,1,1,1051,107.5A6,6,0,1,1,1063,107.5"></path><path id="kity_path_109" fill="none" stroke="gray" d="M1052.5,107.5L1061.5,107.5"></path></g><path id="node_outline11" fill="rgb(238, 243, 246)" stroke="rgb(115, 161, 191)" d="M999.5,114.5h115a3,3,0,0,1,3,3v26a3,3,0,0,1,-3,3h-115a3,3,0,0,1,-3,-3v-26a3,3,0,0,1,3,-3z" stroke-width="1"></path><g id="node_text11" fill="black"><text id="kity_text_69" text-rendering="inherit" font-size="14" dy=".8em" y="123.5" x="1041.5">动词短语</text></g><g id="node_priority3"><path id="kity_path_122" fill="#01467F" stroke="none" d="M1017,134c0,3.866,3.134,7,7,7h6c3.866,0,7,-3.134,7,-7V128H1017V134z"></path><path id="kity_path_123" fill="#0074FF" stroke="none" d="M1037,131c0,3.866,-3.134,7,-7,7H1024c-3.866,0,-7,-3.134,-7,-7V128c0,-3.866,3.134,-7,7,-7h6c3.866,0,7,3.134,7,7V131z" opacity="0.8"></path><text id="kity_text_124" text-rendering="geometricPrecision" x="1026" y="130.5" text-anchor="middle" font-style="italic" font-size="12" fill="white" dy="4">2</text></g></g><g id="minder_node7"><g id="node_expander5" style="cursor: pointer;" display="none"><path id="kity_path_93" fill="white" stroke="gray" d="M853,175.5A6,6,0,1,1,841,175.5A6,6,0,1,1,853,175.5"></path><path id="kity_path_94" fill="none" stroke="gray"></path></g><path id="node_outline6" fill="none" stroke="none" d="M817.5,181.5h59a5,5,0,0,1,5,5v20a5,5,0,0,1,-5,5h-59a5,5,0,0,1,-5,-5v-20a5,5,0,0,1,5,-5z" stroke-width="3"></path><g id="node_text6" fill="black"><text id="kity_text_59" text-rendering="inherit" font-size="12" dy=".8em" y="190.5" x="847.5">动词</text></g><g id="node_priority7"><path id="kity_path_142" fill="#006300" stroke="none" d="M823,200c0,3.866,3.134,7,7,7h6c3.866,0,7,-3.134,7,-7V194H823V200z"></path><path id="kity_path_143" fill="#00AF00" stroke="none" d="M843,197c0,3.866,-3.134,7,-7,7H830c-3.866,0,-7,-3.134,-7,-7V194c0,-3.866,3.134,-7,7,-7h6c3.866,0,7,3.134,7,7V197z" opacity="0.8"></path><text id="kity_text_144" text-rendering="geometricPrecision" x="832" y="196.5" text-anchor="middle" font-style="italic" font-size="12" fill="white" dy="4">3</text></g></g><g id="kity_g_12" display="none"><path id="kity_path_13" fill="none" stroke="rgb(66, 94, 112)" d="M775.5,112.5h90a3,3,0,0,1,3,3v20a3,3,0,0,1,-3,3h-90a3,3,0,0,1,-3,-3v-20a3,3,0,0,1,3,-3z" stroke-width="5"></path></g><g id="minder_node3"><g id="node_expander1" style="cursor: pointer;"><path id="kity_path_81" fill="white" stroke="gray" d="M90,175.5A6,6,0,1,1,78,175.5A6,6,0,1,1,90,175.5"></path><path id="kity_path_82" fill="none" stroke="gray" d="M79.5,175.5L88.5,175.5"></path></g><path id="node_outline2" fill="none" stroke="none" d="M54.5,181.5h59a5,5,0,0,1,5,5v20a5,5,0,0,1,-5,5h-59a5,5,0,0,1,-5,-5v-20a5,5,0,0,1,5,-5z" stroke-width="3"></path><g id="node_text2" fill="black"><text id="kity_text_51" text-rendering="inherit" font-size="12" dy=".8em" y="190.5" x="84.5">介词</text></g><g id="node_priority4"><path id="kity_path_127" fill="#006300" stroke="none" d="M60,200c0,3.866,3.134,7,7,7h6c3.866,0,7,-3.134,7,-7V194H60V200z"></path><path id="kity_path_128" fill="#00AF00" stroke="none" d="M80,197c0,3.866,-3.134,7,-7,7H67c-3.866,0,-7,-3.134,-7,-7V194c0,-3.866,3.134,-7,7,-7h6c3.866,0,7,3.134,7,7V197z" opacity="0.8"></path><text id="kity_text_129" text-rendering="geometricPrecision" x="69" y="196.5" text-anchor="middle" font-style="italic" font-size="12" fill="white" dy="4">3</text></g></g><g id="minder_node4"><g id="node_expander2" style="cursor: pointer;"><path id="kity_path_84" fill="white" stroke="gray" d="M318,175.5A6,6,0,1,1,306,175.5A6,6,0,1,1,318,175.5"></path><path id="kity_path_85" fill="none" stroke="gray" d="M307.5,175.5L316.5,175.5"></path></g><path id="node_outline3" fill="none" stroke="none" d="M276.5,181.5h71a5,5,0,0,1,5,5v20a5,5,0,0,1,-5,5h-71a5,5,0,0,1,-5,-5v-20a5,5,0,0,1,5,-5z" stroke-width="3"></path><g id="node_text3" fill="black"><text id="kity_text_53" text-rendering="inherit" font-size="12" dy=".8em" y="190.5" x="306.5">形容词</text></g><g id="node_priority5"><path id="kity_path_132" fill="#006300" stroke="none" d="M282,200c0,3.866,3.134,7,7,7h6c3.866,0,7,-3.134,7,-7V194H282V200z"></path><path id="kity_path_133" fill="#00AF00" stroke="none" d="M302,197c0,3.866,-3.134,7,-7,7H289c-3.866,0,-7,-3.134,-7,-7V194c0,-3.866,3.134,-7,7,-7h6c3.866,0,7,3.134,7,7V197z" opacity="0.8"></path><text id="kity_text_134" text-rendering="geometricPrecision" x="291" y="196.5" text-anchor="middle" font-style="italic" font-size="12" fill="white" dy="4">3</text></g></g><g id="minder_node5"><g id="node_expander3" style="cursor: pointer;"><path id="kity_path_87" fill="white" stroke="gray" d="M630,175.5A6,6,0,1,1,618,175.5A6,6,0,1,1,630,175.5"></path><path id="kity_path_88" fill="none" stroke="gray" d="M619.5,175.5L628.5,175.5"></path></g><path id="node_outline4" fill="none" stroke="none" d="M594.5,181.5h59a5,5,0,0,1,5,5v20a5,5,0,0,1,-5,5h-59a5,5,0,0,1,-5,-5v-20a5,5,0,0,1,5,-5z" stroke-width="3"></path><g id="node_text4" fill="black"><text id="kity_text_55" text-rendering="inherit" font-size="12" dy=".8em" y="190.5" x="624.5">名词</text></g><g id="node_priority6"><path id="kity_path_137" fill="#006300" stroke="none" d="M600,200c0,3.866,3.134,7,7,7h6c3.866,0,7,-3.134,7,-7V194H600V200z"></path><path id="kity_path_138" fill="#00AF00" stroke="none" d="M620,197c0,3.866,-3.134,7,-7,7H607c-3.866,0,-7,-3.134,-7,-7V194c0,-3.866,3.134,-7,7,-7h6c3.866,0,7,3.134,7,7V197z" opacity="0.8"></path><text id="kity_text_139" text-rendering="geometricPrecision" x="609" y="196.5" text-anchor="middle" font-style="italic" font-size="12" fill="white" dy="4">3</text></g></g><g id="minder_node16"><g id="node_expander18" style="cursor: pointer;"><path id="kity_path_270" fill="white" stroke="gray" d="M1261,175.5A6,6,0,1,1,1249,175.5A6,6,0,1,1,1261,175.5"></path><path id="kity_path_271" fill="none" stroke="gray" d="M1250.5,175.5L1259.5,175.5"></path></g><path id="node_outline19" fill="none" stroke="none" d="M1213.5,181.5h83a5,5,0,0,1,5,5v20a5,5,0,0,1,-5,5h-83a5,5,0,0,1,-5,-5v-20a5,5,0,0,1,5,-5z" stroke-width="3"></path><g id="node_text19" fill="black"><text id="kity_text_255" text-rendering="inherit" font-size="12" dy=".8em" y="190.5" x="1243.5">名词短语</text></g><g id="node_priority16"><path id="kity_path_274" fill="#006300" stroke="none" d="M1219,200c0,3.866,3.134,7,7,7h6c3.866,0,7,-3.134,7,-7V194H1219V200z"></path><path id="kity_path_275" fill="#00AF00" stroke="none" d="M1239,197c0,3.866,-3.134,7,-7,7H1226c-3.866,0,-7,-3.134,-7,-7V194c0,-3.866,3.134,-7,7,-7h6c3.866,0,7,3.134,7,7V197z" opacity="0.8"></path><text id="kity_text_276" text-rendering="geometricPrecision" x="1228" y="196.5" text-anchor="middle" font-style="italic" font-size="12" fill="white" dy="4">3</text></g></g><g id="minder_node20"><g id="node_expander19" style="cursor: pointer;" display="none"><path id="kity_path_298" fill="white" stroke="gray" d="M48.5,235.5A6,6,0,1,1,36.5,235.5A6,6,0,1,1,48.5,235.5"></path><path id="kity_path_299" fill="none" stroke="gray"></path></g><path id="node_outline20" fill="none" stroke="none" d="M25.5,241.5h34a5,5,0,0,1,5,5v12a5,5,0,0,1,-5,5h-34a5,5,0,0,1,-5,-5v-12a5,5,0,0,1,5,-5z" stroke-width="3"></path><g id="node_text20" fill="black"><text id="kity_text_295" text-rendering="inherit" font-size="12" dy=".8em" y="246.5" x="30.5">一个</text></g></g><g id="minder_node21"><g id="node_expander20" style="cursor: pointer;" display="none"><path id="kity_path_306" fill="white" stroke="gray" d="M132.5,235.5A6,6,0,1,1,120.5,235.5A6,6,0,1,1,132.5,235.5"></path><path id="kity_path_307" fill="none" stroke="gray"></path></g><path id="node_outline21" fill="none" stroke="none" d="M109.5,241.5h34a5,5,0,0,1,5,5v12a5,5,0,0,1,-5,5h-34a5,5,0,0,1,-5,-5v-12a5,5,0,0,1,5,-5z" stroke-width="3"></path><g id="node_text21" fill="black"><text id="kity_text_303" text-rendering="inherit" font-size="12" dy=".8em" y="246.5" x="114.5">这个</text></g></g><g id="minder_node22"><g id="node_expander21" style="cursor: pointer;" display="none"><path id="kity_path_314" fill="white" stroke="gray" d="M222.5,235.5A6,6,0,1,1,210.5,235.5A6,6,0,1,1,222.5,235.5"></path><path id="kity_path_315" fill="none" stroke="gray"></path></g><path id="node_outline22" fill="none" stroke="none" d="M193.5,241.5h46a5,5,0,0,1,5,5v12a5,5,0,0,1,-5,5h-46a5,5,0,0,1,-5,-5v-12a5,5,0,0,1,5,-5z" stroke-width="3"></path><g id="node_text22" fill="black"><text id="kity_text_311" text-rendering="inherit" font-size="12" dy=".8em" y="246.5" x="198.5">蓝色的</text></g></g><g id="minder_node23"><g id="node_expander22" style="cursor: pointer;" display="none"><path id="kity_path_322" fill="white" stroke="gray" d="M318.5,235.5A6,6,0,1,1,306.5,235.5A6,6,0,1,1,318.5,235.5"></path><path id="kity_path_323" fill="none" stroke="gray" d="M308,235.5L317,235.5"></path></g><path id="node_outline23" fill="none" stroke="none" d="M289.5,241.5h46a5,5,0,0,1,5,5v12a5,5,0,0,1,-5,5h-46a5,5,0,0,1,-5,-5v-12a5,5,0,0,1,5,-5z" stroke-width="3"></path><g id="node_text23" fill="black"><text id="kity_text_319" text-rendering="inherit" font-size="12" dy=".8em" y="246.5" x="294.5">好看的</text></g></g><g id="minder_node25"><g id="node_expander24" style="cursor: pointer;" display="none"><path id="kity_path_338" fill="white" stroke="gray" d="M414.5,235.5A6,6,0,1,1,402.5,235.5A6,6,0,1,1,414.5,235.5"></path><path id="kity_path_339" fill="none" stroke="gray"></path></g><path id="node_outline25" fill="none" stroke="none" d="M385.5,241.5h46a5,5,0,0,1,5,5v12a5,5,0,0,1,-5,5h-46a5,5,0,0,1,-5,-5v-12a5,5,0,0,1,5,-5z" stroke-width="3"></path><g id="node_text25" fill="black"><text id="kity_text_335" text-rendering="inherit" font-size="12" dy=".8em" y="246.5" x="390.5">小小的</text></g></g><g id="minder_node26"><g id="node_expander25" style="cursor: pointer;" display="none"><path id="kity_path_346" fill="white" stroke="gray" d="M504.5,235.5A6,6,0,1,1,492.5,235.5A6,6,0,1,1,504.5,235.5"></path><path id="kity_path_347" fill="none" stroke="gray"></path></g><path id="node_outline26" fill="none" stroke="none" d="M481.5,241.5h34a5,5,0,0,1,5,5v12a5,5,0,0,1,-5,5h-34a5,5,0,0,1,-5,-5v-12a5,5,0,0,1,5,-5z" stroke-width="3"></path><g id="node_text26" fill="black"><text id="kity_text_343" text-rendering="inherit" font-size="12" dy=".8em" y="246.5" x="486.5">女人</text></g></g><g id="minder_node27"><g id="node_expander26" style="cursor: pointer;" display="none"><path id="kity_path_354" fill="white" stroke="gray" d="M588.5,235.5A6,6,0,1,1,576.5,235.5A6,6,0,1,1,588.5,235.5"></path><path id="kity_path_355" fill="none" stroke="gray"></path></g><path id="node_outline27" fill="none" stroke="none" d="M565.5,241.5h34a5,5,0,0,1,5,5v12a5,5,0,0,1,-5,5h-34a5,5,0,0,1,-5,-5v-12a5,5,0,0,1,5,-5z" stroke-width="3"></path><g id="node_text27" fill="black"><text id="kity_text_351" text-rendering="inherit" font-size="12" dy=".8em" y="246.5" x="570.5">篮球</text></g></g><g id="minder_node28"><g id="node_expander27" style="cursor: pointer;" display="none"><path id="kity_path_362" fill="white" stroke="gray" d="M672.5,235.5A6,6,0,1,1,660.5,235.5A6,6,0,1,1,672.5,235.5"></path><path id="kity_path_363" fill="none" stroke="gray"></path></g><path id="node_outline28" fill="none" stroke="none" d="M649.5,241.5h34a5,5,0,0,1,5,5v12a5,5,0,0,1,-5,5h-34a5,5,0,0,1,-5,-5v-12a5,5,0,0,1,5,-5z" stroke-width="3"></path><g id="node_text28" fill="black"><text id="kity_text_359" text-rendering="inherit" font-size="12" dy=".8em" y="246.5" x="654.5">桌子</text></g></g><g id="minder_node29"><g id="node_expander28" style="cursor: pointer;" display="none"><path id="kity_path_370" fill="white" stroke="gray" d="M756.5,235.5A6,6,0,1,1,744.5,235.5A6,6,0,1,1,756.5,235.5"></path><path id="kity_path_371" fill="none" stroke="gray"></path></g><path id="node_outline29" fill="none" stroke="none" d="M733.5,241.5h34a5,5,0,0,1,5,5v12a5,5,0,0,1,-5,5h-34a5,5,0,0,1,-5,-5v-12a5,5,0,0,1,5,-5z" stroke-width="3"></path><g id="node_text29" fill="black"><text id="kity_text_367" text-rendering="inherit" font-size="12" dy=".8em" y="246.5" x="738.5">小猫</text></g></g><g id="minder_node35"><g id="node_expander36" style="cursor: pointer;"><path id="kity_path_434" fill="white" stroke="gray" d="M991,235.5A6,6,0,1,1,979,235.5A6,6,0,1,1,991,235.5"></path><path id="kity_path_435" fill="none" stroke="gray" d="M980.5,235.5L989.5,235.5"></path></g><path id="node_outline37" fill="none" stroke="none" d="M955.5,241.5h59a5,5,0,0,1,5,5v20a5,5,0,0,1,-5,5h-59a5,5,0,0,1,-5,-5v-20a5,5,0,0,1,5,-5z" stroke-width="3"></path><g id="node_text37" fill="black"><text id="kity_text_423" text-rendering="inherit" font-size="12" dy=".8em" y="250.5" x="985.5">介词</text></g><g id="node_priority20"><path id="kity_path_510" fill="#B25000" stroke="none" d="M961,260c0,3.866,3.134,7,7,7h6c3.866,0,7,-3.134,7,-7V254H961V260z"></path><path id="kity_path_511" fill="#FF962E" stroke="none" d="M981,257c0,3.866,-3.134,7,-7,7H968c-3.866,0,-7,-3.134,-7,-7V254c0,-3.866,3.134,-7,7,-7h6c3.866,0,7,3.134,7,7V257z" opacity="0.8"></path><text id="kity_text_512" text-rendering="geometricPrecision" x="970" y="256.5" text-anchor="middle" font-style="italic" font-size="12" fill="white" dy="4">4</text></g></g><g id="minder_node36"><g id="node_expander34" style="cursor: pointer;" display="none"><path id="kity_path_428" fill="white" stroke="gray" d="M949.5,295.5A6,6,0,1,1,937.5,295.5A6,6,0,1,1,949.5,295.5"></path><path id="kity_path_429" fill="none" stroke="gray"></path></g><path id="node_outline35" fill="none" stroke="none" d="M926.5,301.5h34a5,5,0,0,1,5,5v12a5,5,0,0,1,-5,5h-34a5,5,0,0,1,-5,-5v-12a5,5,0,0,1,5,-5z"></path><g id="node_text35" fill="black"><text id="kity_text_419" text-rendering="inherit" font-size="12" dy=".8em" y="306.5" x="931.5">一个</text></g></g><g id="minder_node37"><g id="node_expander35" style="cursor: pointer;" display="none"><path id="kity_path_431" fill="white" stroke="gray" d="M1033.5,295.5A6,6,0,1,1,1021.5,295.5A6,6,0,1,1,1033.5,295.5"></path><path id="kity_path_432" fill="none" stroke="gray"></path></g><path id="node_outline36" fill="none" stroke="none" d="M1010.5,301.5h34a5,5,0,0,1,5,5v12a5,5,0,0,1,-5,5h-34a5,5,0,0,1,-5,-5v-12a5,5,0,0,1,5,-5z"></path><g id="node_text36" fill="black"><text id="kity_text_421" text-rendering="inherit" font-size="12" dy=".8em" y="306.5" x="1015.5">这个</text></g></g><g id="minder_node38"><g id="node_expander40" style="cursor: pointer;"><path id="kity_path_466" fill="white" stroke="gray" d="M1219,235.5A6,6,0,1,1,1207,235.5A6,6,0,1,1,1219,235.5"></path><path id="kity_path_467" fill="none" stroke="gray" d="M1208.5,235.5L1217.5,235.5"></path></g><path id="node_outline41" fill="none" stroke="none" d="M1177.5,241.5h71a5,5,0,0,1,5,5v20a5,5,0,0,1,-5,5h-71a5,5,0,0,1,-5,-5v-20a5,5,0,0,1,5,-5z" stroke-width="3"></path><g id="node_text41" fill="black"><text id="kity_text_451" text-rendering="inherit" font-size="12" dy=".8em" y="250.5" x="1207.5">形容词</text></g><g id="node_priority21"><path id="kity_path_515" fill="#B25000" stroke="none" d="M1183,260c0,3.866,3.134,7,7,7h6c3.866,0,7,-3.134,7,-7V254H1183V260z"></path><path id="kity_path_516" fill="#FF962E" stroke="none" d="M1203,257c0,3.866,-3.134,7,-7,7H1190c-3.866,0,-7,-3.134,-7,-7V254c0,-3.866,3.134,-7,7,-7h6c3.866,0,7,3.134,7,7V257z" opacity="0.8"></path><text id="kity_text_517" text-rendering="geometricPrecision" x="1192" y="256.5" text-anchor="middle" font-style="italic" font-size="12" fill="white" dy="4">4</text></g></g><g id="minder_node39"><g id="node_expander37" style="cursor: pointer;" display="none"><path id="kity_path_457" fill="white" stroke="gray" d="M1123.5,295.5A6,6,0,1,1,1111.5,295.5A6,6,0,1,1,1123.5,295.5"></path><path id="kity_path_458" fill="none" stroke="gray"></path></g><path id="node_outline38" fill="none" stroke="none" d="M1094.5,301.5h46a5,5,0,0,1,5,5v12a5,5,0,0,1,-5,5h-46a5,5,0,0,1,-5,-5v-12a5,5,0,0,1,5,-5z"></path><g id="node_text38" fill="black"><text id="kity_text_445" text-rendering="inherit" font-size="12" dy=".8em" y="306.5" x="1099.5">蓝色的</text></g></g><g id="minder_node40"><g id="node_expander38" style="cursor: pointer;" display="none"><path id="kity_path_460" fill="white" stroke="gray" d="M1219.5,295.5A6,6,0,1,1,1207.5,295.5A6,6,0,1,1,1219.5,295.5"></path><path id="kity_path_461" fill="none" stroke="gray"></path></g><path id="node_outline39" fill="none" stroke="none" d="M1190.5,301.5h46a5,5,0,0,1,5,5v12a5,5,0,0,1,-5,5h-46a5,5,0,0,1,-5,-5v-12a5,5,0,0,1,5,-5z"></path><g id="node_text39" fill="black"><text id="kity_text_447" text-rendering="inherit" font-size="12" dy=".8em" y="306.5" x="1195.5">好看的</text></g></g><g id="minder_node41"><g id="node_expander39" style="cursor: pointer;" display="none"><path id="kity_path_463" fill="white" stroke="gray" d="M1315.5,295.5A6,6,0,1,1,1303.5,295.5A6,6,0,1,1,1315.5,295.5"></path><path id="kity_path_464" fill="none" stroke="gray"></path></g><path id="node_outline40" fill="none" stroke="none" d="M1286.5,301.5h46a5,5,0,0,1,5,5v12a5,5,0,0,1,-5,5h-46a5,5,0,0,1,-5,-5v-12a5,5,0,0,1,5,-5z"></path><g id="node_text40" fill="black"><text id="kity_text_449" text-rendering="inherit" font-size="12" dy=".8em" y="306.5" x="1291.5">小小的</text></g></g><g id="minder_node42"><g id="node_expander45" style="cursor: pointer;"><path id="kity_path_506" fill="white" stroke="gray" d="M1531,235.5A6,6,0,1,1,1519,235.5A6,6,0,1,1,1531,235.5"></path><path id="kity_path_507" fill="none" stroke="gray" d="M1520.5,235.5L1529.5,235.5"></path></g><path id="node_outline46" fill="none" stroke="none" d="M1495.5,241.5h59a5,5,0,0,1,5,5v20a5,5,0,0,1,-5,5h-59a5,5,0,0,1,-5,-5v-20a5,5,0,0,1,5,-5z" stroke-width="3"></path><g id="node_text46" fill="black"><text id="kity_text_487" text-rendering="inherit" font-size="12" dy=".8em" y="250.5" x="1525.5">名词</text></g><g id="node_priority22"><path id="kity_path_520" fill="#B25000" stroke="none" d="M1501,260c0,3.866,3.134,7,7,7h6c3.866,0,7,-3.134,7,-7V254H1501V260z"></path><path id="kity_path_521" fill="#FF962E" stroke="none" d="M1521,257c0,3.866,-3.134,7,-7,7H1508c-3.866,0,-7,-3.134,-7,-7V254c0,-3.866,3.134,-7,7,-7h6c3.866,0,7,3.134,7,7V257z" opacity="0.8"></path><text id="kity_text_522" text-rendering="geometricPrecision" x="1510" y="256.5" text-anchor="middle" font-style="italic" font-size="12" fill="white" dy="4">4</text></g></g><g id="minder_node43"><g id="node_expander41" style="cursor: pointer;" display="none"><path id="kity_path_494" fill="white" stroke="gray" d="M1405.5,295.5A6,6,0,1,1,1393.5,295.5A6,6,0,1,1,1405.5,295.5"></path><path id="kity_path_495" fill="none" stroke="gray"></path></g><path id="node_outline42" fill="none" stroke="none" d="M1382.5,301.5h34a5,5,0,0,1,5,5v12a5,5,0,0,1,-5,5h-34a5,5,0,0,1,-5,-5v-12a5,5,0,0,1,5,-5z"></path><g id="node_text42" fill="black"><text id="kity_text_479" text-rendering="inherit" font-size="12" dy=".8em" y="306.5" x="1387.5">女人</text></g></g><g id="minder_node44"><g id="node_expander42" style="cursor: pointer;" display="none"><path id="kity_path_497" fill="white" stroke="gray" d="M1489.5,295.5A6,6,0,1,1,1477.5,295.5A6,6,0,1,1,1489.5,295.5"></path><path id="kity_path_498" fill="none" stroke="gray"></path></g><path id="node_outline43" fill="none" stroke="none" d="M1466.5,301.5h34a5,5,0,0,1,5,5v12a5,5,0,0,1,-5,5h-34a5,5,0,0,1,-5,-5v-12a5,5,0,0,1,5,-5z"></path><g id="node_text43" fill="black"><text id="kity_text_481" text-rendering="inherit" font-size="12" dy=".8em" y="306.5" x="1471.5">篮球</text></g></g><g id="minder_node45"><g id="node_expander43" style="cursor: pointer;" display="none"><path id="kity_path_500" fill="white" stroke="gray" d="M1573.5,295.5A6,6,0,1,1,1561.5,295.5A6,6,0,1,1,1573.5,295.5"></path><path id="kity_path_501" fill="none" stroke="gray"></path></g><path id="node_outline44" fill="none" stroke="none" d="M1550.5,301.5h34a5,5,0,0,1,5,5v12a5,5,0,0,1,-5,5h-34a5,5,0,0,1,-5,-5v-12a5,5,0,0,1,5,-5z"></path><g id="node_text44" fill="black"><text id="kity_text_483" text-rendering="inherit" font-size="12" dy=".8em" y="306.5" x="1555.5">桌子</text></g></g><g id="minder_node46"><g id="node_expander44" style="cursor: pointer;" display="none"><path id="kity_path_503" fill="white" stroke="gray" d="M1657.5,295.5A6,6,0,1,1,1645.5,295.5A6,6,0,1,1,1657.5,295.5"></path><path id="kity_path_504" fill="none" stroke="gray"></path></g><path id="node_outline45" fill="none" stroke="none" d="M1634.5,301.5h34a5,5,0,0,1,5,5v12a5,5,0,0,1,-5,5h-34a5,5,0,0,1,-5,-5v-12a5,5,0,0,1,5,-5z"></path><g id="node_text45" fill="black"><text id="kity_text_485" text-rendering="inherit" font-size="12" dy=".8em" y="306.5" x="1639.5">小猫</text></g></g></g></g></svg>